<svg width="139" height="40" viewBox="0 0 139 40" fill="none" xmlns="http://www.w3.org/2000/svg">
<path d="M56.6213 21.68H54.7812V30H51.3613V21.68H50.1213V18.84H51.3613V18.52C51.3613 17.1467 51.7546 16.1067 52.5413 15.4C53.3279 14.68 54.4813 14.32 56.0013 14.32C56.2546 14.32 56.4413 14.3267 56.5613 14.34V17.24C55.9079 17.2 55.4479 17.2933 55.1813 17.52C54.9146 17.7467 54.7812 18.1533 54.7812 18.74V18.84H56.6213V21.68Z" fill="#33CC95"/>
<path d="M59.9483 17.68C59.3483 17.68 58.8549 17.5067 58.4683 17.16C58.0949 16.8 57.9083 16.36 57.9083 15.84C57.9083 15.3067 58.0949 14.8667 58.4683 14.52C58.8549 14.16 59.3483 13.98 59.9483 13.98C60.5349 13.98 61.0149 14.16 61.3883 14.52C61.7749 14.8667 61.9683 15.3067 61.9683 15.84C61.9683 16.36 61.7749 16.8 61.3883 17.16C61.0149 17.5067 60.5349 17.68 59.9483 17.68ZM61.6483 18.84V30H58.2283V18.84H61.6483ZM70.9267 18.72C72.2334 18.72 73.2734 19.1467 74.0467 20C74.8334 20.84 75.2267 22 75.2267 23.48V30H71.8267V23.94C71.8267 23.1933 71.6334 22.6133 71.2467 22.2C70.8601 21.7867 70.3401 21.58 69.6867 21.58C69.0334 21.58 68.5134 21.7867 68.1267 22.2C67.7401 22.6133 67.5467 23.1933 67.5467 23.94V30H64.1267V18.84H67.5467V20.32C67.8934 19.8267 68.3601 19.44 68.9467 19.16C69.5334 18.8667 70.1934 18.72 70.9267 18.72ZM76.9233 24.4C76.9233 23.2533 77.1366 22.2467 77.5633 21.38C78.0033 20.5133 78.5966 19.8467 79.3433 19.38C80.0899 18.9133 80.9233 18.68 81.8433 18.68C82.6299 18.68 83.3166 18.84 83.9033 19.16C84.5033 19.48 84.9633 19.9 85.2833 20.42V18.84H88.7033V30H85.2833V28.42C84.9499 28.94 84.4833 29.36 83.8833 29.68C83.2966 30 82.6099 30.16 81.8233 30.16C80.9166 30.16 80.0899 29.9267 79.3433 29.46C78.5966 28.98 78.0033 28.3067 77.5633 27.44C77.1366 26.56 76.9233 25.5467 76.9233 24.4ZM85.2833 24.42C85.2833 23.5667 85.0433 22.8933 84.5633 22.4C84.0966 21.9067 83.5233 21.66 82.8433 21.66C82.1633 21.66 81.5833 21.9067 81.1033 22.4C80.6366 22.88 80.4033 23.5467 80.4033 24.4C80.4033 25.2533 80.6366 25.9333 81.1033 26.44C81.5833 26.9333 82.1633 27.18 82.8433 27.18C83.5233 27.18 84.0966 26.9333 84.5633 26.44C85.0433 25.9467 85.2833 25.2733 85.2833 24.42ZM97.9775 18.72C99.2842 18.72 100.324 19.1467 101.098 20C101.884 20.84 102.278 22 102.278 23.48V30H98.8775V23.94C98.8775 23.1933 98.6842 22.6133 98.2975 22.2C97.9108 21.7867 97.3908 21.58 96.7375 21.58C96.0842 21.58 95.5642 21.7867 95.1775 22.2C94.7908 22.6133 94.5975 23.1933 94.5975 23.94V30H91.1775V18.84H94.5975V20.32C94.9442 19.8267 95.4108 19.44 95.9975 19.16C96.5842 18.8667 97.2442 18.72 97.9775 18.72ZM103.974 24.42C103.974 23.26 104.207 22.2467 104.674 21.38C105.154 20.5133 105.814 19.8467 106.654 19.38C107.507 18.9133 108.481 18.68 109.574 18.68C110.974 18.68 112.141 19.0467 113.074 19.78C114.021 20.5133 114.641 21.5467 114.934 22.88H111.294C110.987 22.0267 110.394 21.6 109.514 21.6C108.887 21.6 108.387 21.8467 108.014 22.34C107.641 22.82 107.454 23.5133 107.454 24.42C107.454 25.3267 107.641 26.0267 108.014 26.52C108.387 27 108.887 27.24 109.514 27.24C110.394 27.24 110.987 26.8133 111.294 25.96H114.934C114.641 27.2667 114.021 28.2933 113.074 29.04C112.127 29.7867 110.961 30.16 109.574 30.16C108.481 30.16 107.507 29.9267 106.654 29.46C105.814 28.9933 105.154 28.3267 104.674 27.46C104.207 26.5933 103.974 25.58 103.974 24.42ZM127.283 24.24C127.283 24.56 127.263 24.8933 127.223 25.24H119.483C119.537 25.9333 119.757 26.4667 120.143 26.84C120.543 27.2 121.03 27.38 121.603 27.38C122.457 27.38 123.05 27.02 123.383 26.3H127.023C126.837 27.0333 126.497 27.6933 126.003 28.28C125.523 28.8667 124.917 29.3267 124.183 29.66C123.45 29.9933 122.63 30.16 121.723 30.16C120.63 30.16 119.657 29.9267 118.803 29.46C117.95 28.9933 117.283 28.3267 116.803 27.46C116.323 26.5933 116.083 25.58 116.083 24.42C116.083 23.26 116.317 22.2467 116.783 21.38C117.263 20.5133 117.93 19.8467 118.783 19.38C119.637 18.9133 120.617 18.68 121.723 18.68C122.803 18.68 123.763 18.9067 124.603 19.36C125.443 19.8133 126.097 20.46 126.563 21.3C127.043 22.14 127.283 23.12 127.283 24.24ZM123.783 23.34C123.783 22.7533 123.583 22.2867 123.183 21.94C122.783 21.5933 122.283 21.42 121.683 21.42C121.11 21.42 120.623 21.5867 120.223 21.92C119.837 22.2533 119.597 22.7267 119.503 23.34H123.783ZM133.628 30.16C132.654 30.16 131.788 29.9933 131.028 29.66C130.268 29.3267 129.668 28.8733 129.228 28.3C128.788 27.7133 128.541 27.06 128.488 26.34H131.868C131.908 26.7267 132.088 27.04 132.408 27.28C132.728 27.52 133.121 27.64 133.588 27.64C134.014 27.64 134.341 27.56 134.568 27.4C134.808 27.2267 134.928 27.0067 134.928 26.74C134.928 26.42 134.761 26.1867 134.428 26.04C134.094 25.88 133.554 25.7067 132.808 25.52C132.008 25.3333 131.341 25.14 130.808 24.94C130.274 24.7267 129.814 24.4 129.428 23.96C129.041 23.5067 128.848 22.9 128.848 22.14C128.848 21.5 129.021 20.92 129.368 20.4C129.728 19.8667 130.248 19.4467 130.928 19.14C131.621 18.8333 132.441 18.68 133.388 18.68C134.788 18.68 135.888 19.0267 136.688 19.72C137.501 20.4133 137.968 21.3333 138.088 22.48H134.928C134.874 22.0933 134.701 21.7867 134.408 21.56C134.128 21.3333 133.754 21.22 133.288 21.22C132.888 21.22 132.581 21.3 132.368 21.46C132.154 21.6067 132.048 21.8133 132.048 22.08C132.048 22.4 132.214 22.64 132.548 22.8C132.894 22.96 133.428 23.12 134.148 23.28C134.974 23.4933 135.648 23.7067 136.168 23.92C136.688 24.12 137.141 24.4533 137.528 24.92C137.928 25.3733 138.134 25.9867 138.148 26.76C138.148 27.4133 137.961 28 137.588 28.52C137.228 29.0267 136.701 29.4267 136.008 29.72C135.328 30.0133 134.534 30.16 133.628 30.16Z" fill="white"/>
<path d="M34.1422 5.85781C30.3647 2.08031 25.3422 0 20 0C14.6578 0 9.63531 2.08031 5.85781 5.85781C2.08031 9.63531 0 14.6578 0 20C0 25.3422 2.08039 30.3646 5.85781 34.1422C9.63523 37.9198 14.6578 40 20 40C25.3422 40 30.3647 37.9197 34.1422 34.1422C37.9197 30.3647 40 25.3422 40 20C40 14.6578 37.9196 9.63539 34.1422 5.85781Z" fill="#33CC95"/>
<g clip-path="url(#clip0_35212_417)">
<path d="M20.5714 8V33.1429" stroke="white" stroke-width="2" stroke-linecap="round" stroke-linejoin="round"/>
<path d="M26.2857 12.5714H17.7143C16.6534 12.5714 15.636 12.9929 14.8859 13.743C14.1357 14.4931 13.7143 15.5106 13.7143 16.5714C13.7143 17.6323 14.1357 18.6497 14.8859 19.3999C15.636 20.15 16.6534 20.5714 17.7143 20.5714H23.4286C24.4894 20.5714 25.5069 20.9929 26.257 21.743C27.0072 22.4932 27.4286 23.5106 27.4286 24.5714C27.4286 25.6323 27.0072 26.6497 26.257 27.3999C25.5069 28.15 24.4894 28.5714 23.4286 28.5714H13.7143" stroke="white" stroke-width="2" stroke-linecap="round" stroke-linejoin="round"/>
</g>
<defs>
<clipPath id="clip0_35212_417">
<rect width="27.4286" height="27.4286" fill="white" transform="translate(6.85715 6.85714)"/>
</clipPath>
</defs>
</svg>
